<?xml version="1.0" encoding="utf-8"?>
<svg xmlns="http://www.w3.org/2000/svg" viewBox="0 0 64 64" width="48px" height="48px" xmlns:bx="https://boxy-svg.com"><defs><bx:export><bx:file format="svg" path="bluesky_1.svg"/><bx:file format="svg" href="#object-0"/></bx:export></defs><path fill-rule="nonzero" d="M 19.329 14.902 C 24.457 18.764 29.974 26.596 32 30.799 C 34.024 26.596 39.542 18.764 44.672 14.902 C 48.373 12.113 54.369 9.957 54.369 16.818 C 54.369 18.189 53.586 28.332 53.126 29.982 C 51.531 35.706 45.711 37.164 40.533 36.283 C 49.583 37.827 51.884 42.942 46.913 48.061 C 37.473 57.78 33.344 45.622 32.287 42.507 C 31.983 41.61 32.026 41.59 31.714 42.507 C 30.657 45.622 26.528 57.78 17.088 48.061 C 12.117 42.942 14.42 37.827 23.466 36.283 C 18.291 37.164 12.471 35.706 10.875 29.982 C 10.415 28.332 9.632 18.189 9.632 16.818 C 9.632 9.957 15.629 12.113 19.329 14.902 Z" style="" id="object-0"/></svg>